HIERARCHY
ROOT hip
{
  OFFSET 0.00112043 5.09927 -9.65472
  CHANNELS 6 Xposition Yposition Zposition Zrotation Xrotation Yrotation
  JOINT abdomen
  {
    OFFSET 0 -1.186 -1.5018
    CHANNELS 3 Zrotation Xrotation Yrotation
    JOINT abdomen2
    {
      OFFSET 0 9.964 0.2134
      CHANNELS 3 Zrotation Xrotation Yrotation
      JOINT chest
      {
        OFFSET 0 13.134 -3.2573
        CHANNELS 3 Zrotation Xrotation Yrotation
        JOINT neck
        {
          OFFSET 0 20.686 -1.6905
          CHANNELS 3 Zrotation Xrotation Yrotation
          JOINT head
          {
            OFFSET 0 7.238 -0.1237
            CHANNELS 3 Zrotation Xrotation Yrotation
            End Site
            {
              OFFSET 0 0 0
            }
          }
        }
        JOINT lCollar
        {
          OFFSET 1.7069 20.075 5.0056
          CHANNELS 3 Zrotation Xrotation Yrotation
          JOINT lShldr
          {
            OFFSET 13.6458 -0.047 -4.849
            CHANNELS 3 Zrotation Xrotation Yrotation
            JOINT lForeArm
            {
              OFFSET 28.3255 -0.9759 2.2888
              CHANNELS 3 Zrotation Xrotation Yrotation
              JOINT lHand
              {
                OFFSET 22.1583 -0.53 10.8316
                CHANNELS 3 Zrotation Xrotation Yrotation
                JOINT lThumb1
                {
                  OFFSET 0.786 0.112 2.5817
                  CHANNELS 3 Zrotation Xrotation Yrotation
                  JOINT lThumb2
                  {
                    OFFSET 0.3601 -0.878 4.2331
                    CHANNELS 3 Zrotation Xrotation Yrotation
                    JOINT lThumb2_End
                    {
                      OFFSET 1.8127 -1.216 2.2227
                      CHANNELS 3 Zrotation Xrotation Yrotation
                      End Site
                      {
                        OFFSET 0.0181 -0.0122 0.0222
                      }
                    }
                  }
                }
                JOINT lCarpal1
                {
                  OFFSET 0.9571 1.114 1.7695
                  CHANNELS 3 Zrotation Xrotation Yrotation
                  JOINT lIndex1
                  {
                    OFFSET 4.1246 0.487 4.1451
                    CHANNELS 3 Zrotation Xrotation Yrotation
                    JOINT lIndex2
                    {
                      OFFSET 3.4052 -1.454 2.7682
                      CHANNELS 3 Zrotation Xrotation Yrotation
                      JOINT lIndex2_End
                      {
                        OFFSET 1.4531 -1.795 1.2713
                        CHANNELS 3 Zrotation Xrotation Yrotation
                        End Site
                        {
                          OFFSET 0.0145 -0.0179 0.0127
                        }
                      }
                    }
                  }
                  JOINT lMid1
                  {
                    OFFSET 5.6954 0.21 2.1184
                    CHANNELS 3 Zrotation Xrotation Yrotation
                    JOINT lMid2
                    {
                      OFFSET 3.9766 -1.54 2.3863
                      CHANNELS 3 Zrotation Xrotation Yrotation
                      JOINT lMid2_End
                      {
                        OFFSET 1.4042 -1.926 1.125
                        CHANNELS 3 Zrotation Xrotation Yrotation
                        End Site
                        {
                          OFFSET 0.014 -0.0193 0.0113
                        }
                      }
                    }
                  }
                }
                JOINT lCarpal2
                {
                  OFFSET 2.0956 0.66 -0.3894
                  CHANNELS 3 Zrotation Xrotation Yrotation
                  JOINT lRing1
                  {
                    OFFSET 5.0395 -0.09 2.4971
                    CHANNELS 3 Zrotation Xrotation Yrotation
                    JOINT lRing2
                    {
                      OFFSET 3.7921 -1.552 1.4806
                      CHANNELS 3 Zrotation Xrotation Yrotation
                      JOINT lRing2_End
                      {
                        OFFSET 1.4655 -1.808 0.9609
                        CHANNELS 3 Zrotation Xrotation Yrotation
                        End Site
                        {
                          OFFSET 0.0147 -0.0181 0.0096
                        }
                      }
                    }
                  }
                  JOINT lPinky1
                  {
                    OFFSET 4.9141 -1.269 0.3591
                    CHANNELS 3 Zrotation Xrotation Yrotation
                    JOINT lPinky2
                    {
                      OFFSET 3.1477 -1.685 0.8462
                      CHANNELS 3 Zrotation Xrotation Yrotation
                      JOINT lPinky2_End
                      {
                        OFFSET 0.8055 -1.585 0.7955
                        CHANNELS 3 Zrotation Xrotation Yrotation
                        End Site
                        {
                          OFFSET 0.0081 -0.0158 0.008
                        }
                      }
                    }
                  }
                }
              }
            }
          }
        }
        JOINT rCollar
        {
          OFFSET -1.7069 20.075 5.0056
          CHANNELS 3 Zrotation Xrotation Yrotation
          JOINT rShldr
          {
            OFFSET -13.6458 -0.047 -4.849
            CHANNELS 3 Zrotation Xrotation Yrotation
            JOINT rForeArm
            {
              OFFSET -28.3255 -0.9759 2.2888
              CHANNELS 3 Zrotation Xrotation Yrotation
              JOINT rHand
              {
                OFFSET -22.1583 -0.53 10.8316
                CHANNELS 3 Zrotation Xrotation Yrotation
                JOINT rThumb1
                {
                  OFFSET -0.786 0.112 2.5817
                  CHANNELS 3 Zrotation Xrotation Yrotation
                  JOINT rThumb2
                  {
                    OFFSET -0.3601 -0.878 4.2331
                    CHANNELS 3 Zrotation Xrotation Yrotation
                    JOINT rThumb2_End
                    {
                      OFFSET -1.8127 -1.216 2.2227
                      CHANNELS 3 Zrotation Xrotation Yrotation
                      End Site
                      {
                        OFFSET -0.0181 -0.0122 0.0222
                      }
                    }
                  }
                }
                JOINT rCarpal1
                {
                  OFFSET -0.9571 1.114 1.7695
                  CHANNELS 3 Zrotation Xrotation Yrotation
                  JOINT rIndex1
                  {
                    OFFSET -4.1246 0.487 4.1451
                    CHANNELS 3 Zrotation Xrotation Yrotation
                    JOINT rIndex2
                    {
                      OFFSET -3.4052 -1.454 2.7682
                      CHANNELS 3 Zrotation Xrotation Yrotation
                      JOINT rIndex2_End
                      {
                        OFFSET -1.4531 -1.795 1.2713
                        CHANNELS 3 Zrotation Xrotation Yrotation
                        End Site
                        {
                          OFFSET -0.0145 -0.018 0.0127
                        }
                      }
                    }
                  }
                  JOINT rMid1
                  {
                    OFFSET -5.6954 0.21 2.1184
                    CHANNELS 3 Zrotation Xrotation Yrotation
                    JOINT rMid2
                    {
                      OFFSET -3.9766 -1.54 2.3863
                      CHANNELS 3 Zrotation Xrotation Yrotation
                      JOINT rMid2_End
                      {
                        OFFSET -1.4042 -1.926 1.125
                        CHANNELS 3 Zrotation Xrotation Yrotation
                        End Site
                        {
                          OFFSET -0.014 -0.0193 0.0113
                        }
                      }
                    }
                  }
                }
                JOINT rCarpal2
                {
                  OFFSET -2.0956 0.66 -0.3894
                  CHANNELS 3 Zrotation Xrotation Yrotation
                  JOINT rRing1
                  {
                    OFFSET -5.0395 -0.09 2.4971
                    CHANNELS 3 Zrotation Xrotation Yrotation
                    JOINT rRing2
                    {
                      OFFSET -3.7921 -1.552 1.4806
                      CHANNELS 3 Zrotation Xrotation Yrotation
                      JOINT rRing2_End
                      {
                        OFFSET -1.4655 -1.808 0.9609
                        CHANNELS 3 Zrotation Xrotation Yrotation
                        End Site
                        {
                          OFFSET -0.0147 -0.0181 0.0096
                        }
                      }
                    }
                  }
                  JOINT rPinky1
                  {
                    OFFSET -4.9141 -1.269 0.3592
                    CHANNELS 3 Zrotation Xrotation Yrotation
                    JOINT rPinky2
                    {
                      OFFSET -3.1477 -1.685 0.8462
                      CHANNELS 3 Zrotation Xrotation Yrotation
                      JOINT rPinky2_End
                      {
                        OFFSET -0.8055 -1.585 0.7955
                        CHANNELS 3 Zrotation Xrotation Yrotation
                        End Site
                        {
                          OFFSET -0.0081 -0.0158 0.008
                        }
                      }
                    }
                  }
                }
              }
            }
          }
        }
      }
    }
  }
  JOINT lThigh
  {
    OFFSET 8.367 -8.2066 0.5982
    CHANNELS 3 Zrotation Xrotation Yrotation
    JOINT lShin
    {
      OFFSET 2.1923 -43.463 -0.4932
      CHANNELS 3 Zrotation Xrotation Yrotation
      JOINT lFoot
      {
        OFFSET 0.7333 -45.8593 -2.6451
        CHANNELS 3 Zrotation Xrotation Yrotation
        End Site
        {
          OFFSET 2.6618 -4.2699 12.3931
        }
      }
    }
  }
  JOINT rThigh
  {
    OFFSET -8.367 -8.2066 0.5982
    CHANNELS 3 Zrotation Xrotation Yrotation
    JOINT rShin
    {
      OFFSET -2.1923 -43.463 -0.4931
      CHANNELS 3 Zrotation Xrotation Yrotation
      JOINT rFoot
      {
        OFFSET -0.7333 -45.8593 -2.6451
        CHANNELS 3 Zrotation Xrotation Yrotation
        End Site
        {
          OFFSET -2.6618 -4.2699 12.3931
        }
      }
    }
  }
}
MOTION
Frames:	5
Frame Time:	0.0333333
41.8348 28.6551 31.6178 179.97 59.0055 -29.9888 -0.591079 8.59278 4.1356 -1.84711 17.1184 8.50704 -1.84711 17.1184 8.50705 -30.4213 26.2831 14.5736 -5.05061 -7.97171 -8.7039 -41.7089 0.340328 -2.00488 -24.9995 55.1032 4.56168 9.11972 35.4587 6.99098 1.37348 -13.6424 -9.45972 1.21427e-009 4.26974e-008 1.94818e-007 -3.97569e-016 1.59028e-015 -6.36111e-015 -1.19271e-015 7.95139e-016 -3.18055e-015 -3.97569e-016 -7.95139e-016 -9.54166e-015 1.21427e-009 4.26974e-008 1.94818e-007 2.20695e-032 3.97569e-016 -3.18055e-015 -3.97569e-016 1.19271e-015 -9.54166e-015 1.21427e-009 4.26974e-008 1.94818e-007 2.20695e-032 3.97569e-016 -3.18055e-015 -3.97569e-016 1.19271e-015 -9.54166e-015 -3.97569e-016 -7.95139e-016 -9.54166e-015 1.21427e-009 4.26974e-008 1.94818e-007 2.20695e-032 3.97569e-016 -3.18055e-015 -3.97569e-016 1.19271e-015 -9.54166e-015 1.21427e-009 4.26974e-008 1.94818e-007 2.20695e-032 3.97569e-016 -3.18055e-015 -3.97569e-016 1.19271e-015 -9.54166e-015 -17.5095 -6.7565 -0.154305 69.2616 54.9544 -7.93008 -22.6634 28.6925 25.1615 2.36066 3.23516 -16.4064 -7.95139e-016 -1.59028e-015 -6.36111e-015 -1.59028e-015 0 -6.36111e-015 0 0 -6.36111e-015 -7.95139e-016 0 -6.36111e-015 -1.59028e-015 -7.95139e-016 3.18055e-015 1.59028e-015 -2.38542e-015 -0 -8.82781e-032 -1.59028e-015 -3.18055e-015 -1.59028e-015 -7.95139e-016 3.18055e-015 1.59028e-015 -2.38542e-015 -0 -8.82781e-032 -1.59028e-015 -3.18055e-015 -7.95139e-016 0 -6.36111e-015 -1.59028e-015 -7.95139e-016 3.18055e-015 1.59028e-015 -2.38542e-015 -0 -8.82781e-032 -1.59028e-015 -3.18055e-015 -1.59028e-015 -7.95139e-016 3.18055e-015 1.59028e-015 -2.38542e-015 -0 -8.82781e-032 -1.59028e-015 -3.18055e-015 66.6121 -55.5844 69.4623 3.16541 18.7494 0.496286 6.88244 -0.409121 -0.379099 -86.6781 -48.9346 -83.6573 -127.865 67.518 150.845 -29.0704 19.4887 5.14762 
41.8384 28.6597 31.6351 179.97 59.0055 -29.9888 -0.629793 8.67868 4.13205 -1.93268 17.2873 8.50986 -1.93268 17.2873 8.50986 -30.3266 25.9544 14.3588 -5.05058 -7.97169 -7.93324 -41.22 0.229412 -2.32393 -25.4702 55.0962 4.59112 9.33371 35.4113 6.72598 1.30221 -13.8854 -9.34248 3.97569e-016 0 -0 -1.76556e-031 -7.95139e-016 -1.27222e-014 3.97569e-016 -3.97569e-016 -6.36111e-015 3.97569e-016 0 -0 -3.97569e-016 0 -3.18055e-015 -7.95139e-016 -3.97569e-016 -9.54166e-015 0 0 -9.54166e-015 -3.97569e-016 0 -3.18055e-015 -7.95139e-016 -3.97569e-016 -9.54166e-015 0 0 -9.54166e-015 3.97569e-016 0 -0 -3.97569e-016 0 -3.18055e-015 -7.95139e-016 -3.97569e-016 -9.54166e-015 0 0 -9.54166e-015 -3.97569e-016 0 -3.18055e-015 -7.95139e-016 -3.97569e-016 -9.54166e-015 0 0 -9.54166e-015 -17.59 -7.1403 -0.0754444 69.2617 54.9545 -7.93009 -22.6634 28.6925 25.1615 2.39127 3.03632 -16.3344 -1.59028e-014 1.90833e-014 -3.18055e-015 -1.74931e-014 1.82882e-014 3.18055e-015 -1.43125e-014 1.90833e-014 -9.54166e-015 0 0 -3.18055e-015 -1.43125e-014 2.14687e-014 1.59028e-014 -1.66979e-014 1.82882e-014 -6.36111e-015 -1.66979e-014 1.98785e-014 -9.54166e-015 -1.43125e-014 2.14687e-014 1.59028e-014 -1.66979e-014 1.82882e-014 -6.36111e-015 -1.66979e-014 1.98785e-014 -9.54166e-015 0 0 -3.18055e-015 -1.43125e-014 2.14687e-014 1.59028e-014 -1.66979e-014 1.82882e-014 -6.36111e-015 -1.66979e-014 1.98785e-014 -9.54166e-015 -1.43125e-014 2.14687e-014 1.59028e-014 -1.66979e-014 1.82882e-014 -6.36111e-015 -1.66979e-014 1.98785e-014 -9.54166e-015 66.6493 -55.5912 69.5018 3.16678 18.7868 0.496875 6.87827 -0.439228 -0.377552 -86.2517 -48.7531 -83.3105 -127.366 67.5069 150.415 -29.0694 19.4828 5.14884 
41.8421 28.6642 31.6523 179.97 59.0055 -29.9888 -0.66842 8.7647 4.12805 -2.01807 17.4561 8.51198 -2.01806 17.4561 8.51197 -30.2336 25.625 14.1451 -5.05055 -7.97169 -7.16101 -40.7317 0.115802 -2.642 -25.9408 55.0891 4.62045 9.54729 35.363 6.46136 1.23137 -14.1285 -9.22539 -3.97569e-016 1.59028e-015 3.18055e-015 -1.54983e-008 2.56045e-007 2.90176e-006 3.97569e-016 0 -3.18055e-015 -3.97569e-016 7.95139e-016 3.18055e-015 2.78299e-015 3.97569e-016 1.27222e-014 -1.54983e-008 2.56045e-007 2.90176e-006 3.97569e-016 0 -6.36111e-015 2.78299e-015 3.97569e-016 1.27222e-014 -1.54983e-008 2.56045e-007 2.90176e-006 3.97569e-016 0 -6.36111e-015 -3.97569e-016 7.95139e-016 3.18055e-015 2.78299e-015 3.97569e-016 1.27222e-014 -1.54983e-008 2.56045e-007 2.90176e-006 3.97569e-016 0 -6.36111e-015 2.78299e-015 3.97569e-016 1.27222e-014 -1.54983e-008 2.56045e-007 2.90176e-006 3.97569e-016 0 -6.36111e-015 -17.67 -7.52423 0.00292498 69.2616 54.9544 -7.93004 -22.6634 28.6925 25.1615 2.42212 2.83752 -16.2624 7.95139e-016 0 -6.36111e-015 7.95139e-016 -7.95139e-016 -6.36111e-015 -7.95139e-016 -1.59028e-015 -0 7.95139e-016 7.95139e-016 -6.36111e-015 1.59028e-015 -1.59028e-015 -6.36111e-015 -7.95139e-016 -7.95139e-016 -0 -1.59028e-015 -1.59028e-015 -3.18055e-015 1.59028e-015 -1.59028e-015 -6.36111e-015 -7.95139e-016 -7.95139e-016 -0 -1.59028e-015 -1.59028e-015 -3.18055e-015 7.95139e-016 7.95139e-016 -6.36111e-015 1.59028e-015 -1.59028e-015 -6.36111e-015 -7.95139e-016 -7.95139e-016 -0 -1.59028e-015 -1.59028e-015 -3.18055e-015 1.59028e-015 -1.59028e-015 -6.36111e-015 -7.95139e-016 -7.95139e-016 -0 -1.59028e-015 -1.59028e-015 -3.18055e-015 66.6864 -55.598 69.5413 3.16814 18.824 0.497433 6.87403 -0.469276 -0.376007 -85.8283 -48.5701 -82.967 -126.868 67.4942 149.985 -29.0684 19.4769 5.14992 
41.8459 28.6688 31.6696 179.97 59.0055 -29.9888 -0.706927 8.85061 4.12368 -2.10322 17.6248 8.51337 -2.10321 17.6248 8.51337 -30.1422 25.295 13.9326 -5.05052 -7.97168 -6.38727 -40.2442 -0.000490678 -2.95901 -26.4113 55.0818 4.64965 9.76042 35.3138 6.19714 1.16097 -14.3717 -9.10853 2.04358e-008 8.13634e-008 3.42408e-007 -2.46085e-009 -3.38975e-007 -3.25054e-006 2.20695e-032 3.97569e-016 -3.18055e-015 -7.95139e-016 -7.95139e-016 6.36111e-015 2.04358e-008 8.13634e-008 3.42408e-007 -2.46085e-009 -3.38975e-007 -3.25054e-006 -3.97569e-016 3.97569e-016 -0 2.04358e-008 8.13634e-008 3.42408e-007 -2.46085e-009 -3.38975e-007 -3.25054e-006 -3.97569e-016 3.97569e-016 -0 -7.95139e-016 -7.95139e-016 6.36111e-015 2.04358e-008 8.13634e-008 3.42408e-007 -2.46085e-009 -3.38975e-007 -3.25054e-006 -3.97569e-016 3.97569e-016 -0 2.04358e-008 8.13634e-008 3.42408e-007 -2.46085e-009 -3.38975e-007 -3.25054e-006 -3.97569e-016 3.97569e-016 -0 -17.7496 -7.90819 0.0808291 69.2616 54.9544 -7.93005 -22.6634 28.6925 25.1615 2.45322 2.63877 -16.1902 1.19297e-007 2.53773e-007 -6.93467e-008 -3.82005e-007 1.8835e-007 1.61061e-008 3.82005e-007 -1.8835e-007 -1.61061e-008 4.41391e-032 7.95139e-016 -3.18055e-015 1.19297e-007 2.53773e-007 -6.93466e-008 -3.82005e-007 1.8835e-007 1.61061e-008 3.82005e-007 -1.8835e-007 -1.6106e-008 1.19297e-007 2.53773e-007 -6.93466e-008 -3.82005e-007 1.8835e-007 1.61061e-008 3.82005e-007 -1.8835e-007 -1.6106e-008 4.41391e-032 7.95139e-016 -3.18055e-015 1.19297e-007 2.53773e-007 -6.93466e-008 -3.82005e-007 1.8835e-007 1.61061e-008 3.82005e-007 -1.8835e-007 -1.6106e-008 1.19297e-007 2.53773e-007 -6.93466e-008 -3.82005e-007 1.8835e-007 1.61061e-008 3.82005e-007 -1.8835e-007 -1.6106e-008 66.7237 -55.6046 69.5809 3.16951 18.8612 0.497991 6.86975 -0.499294 -0.37446 -85.408 -48.3855 -82.6269 -126.37 67.48 149.556 -29.0674 19.471 5.15094 
41.8499 28.6734 31.6868 179.97 59.0055 -29.9888 -0.745295 8.93645 4.11889 -2.18812 17.7934 8.51405 -2.18812 17.7934 8.51405 -30.0529 24.964 13.7213 -5.0505 -7.97167 -5.6121 -39.7574 -0.119452 -3.27499 -26.8817 55.0744 4.67879 9.9732 35.2639 5.9333 1.09101 -14.6151 -8.99184 -4.41391e-032 3.97569e-016 6.36111e-015 -1.29603e-007 -2.94905e-007 -1.21795e-005 -0 -7.95139e-016 -0 -4.41391e-032 3.97569e-016 6.36111e-015 1.19271e-015 1.19271e-015 2.54444e-014 -1.29603e-007 -2.94905e-007 -1.21795e-005 3.97569e-016 -7.95139e-016 3.18055e-015 1.19271e-015 1.19271e-015 2.54444e-014 -1.29603e-007 -2.94905e-007 -1.21795e-005 3.97569e-016 -7.95139e-016 3.18055e-015 -4.41391e-032 3.97569e-016 6.36111e-015 1.19271e-015 1.19271e-015 2.54444e-014 -1.29603e-007 -2.94905e-007 -1.21795e-005 3.97569e-016 -7.95139e-016 3.18055e-015 1.19271e-015 1.19271e-015 2.54444e-014 -1.29603e-007 -2.94905e-007 -1.21795e-005 3.97569e-016 -7.95139e-016 3.18055e-015 -17.8287 -8.29224 0.158242 69.2616 54.9544 -7.93007 -22.6634 28.6925 25.1615 2.48457 2.44006 -16.118 -7.64106e-007 3.76577e-007 3.1859e-008 9.52394e-007 5.47548e-009 -8.16085e-009 -7.64106e-007 3.76577e-007 3.1859e-008 -7.95139e-016 0 -3.18055e-015 -7.64106e-007 3.76577e-007 3.1859e-008 9.52394e-007 5.47548e-009 -8.16085e-009 -7.64106e-007 3.76577e-007 3.18591e-008 -7.64106e-007 3.76577e-007 3.1859e-008 9.52394e-007 5.47548e-009 -8.16085e-009 -7.64106e-007 3.76577e-007 3.18591e-008 -7.95139e-016 0 -3.18055e-015 -7.64106e-007 3.76577e-007 3.1859e-008 9.52394e-007 5.47548e-009 -8.16085e-009 -7.64106e-007 3.76577e-007 3.18591e-008 -7.64106e-007 3.76577e-007 3.1859e-008 9.52394e-007 5.47548e-009 -8.16085e-009 -7.64106e-007 3.76577e-007 3.18591e-008 66.7611 -55.6112 69.6206 3.17087 18.8987 0.498537 6.86537 -0.529447 -0.372907 -84.9908 -48.1994 -82.2902 -125.874 67.4643 149.128 -29.0665 19.4651 5.15185 
